<svg width="98" height="73" viewBox="0 0 98 73" fill="none" xmlns="http://www.w3.org/2000/svg">
<path d="M21.2233 38.4147C21.9537 35.7516 24.7047 34.1849 27.3678 34.9154L67.236 45.8512C69.899 46.5817 71.4657 49.3327 70.7352 51.9958L69.0585 58.1085C67.5976 63.4346 62.0956 66.568 56.7695 65.107L26.545 56.8165C21.2189 55.3555 18.0856 49.8535 19.5465 44.5274L21.2233 38.4147Z" fill="#110F0F"/>
<path d="M8.419 22.019L57.8901 12.5096L91.4379 46.8787L41.9668 56.3881L8.419 22.019Z" fill="#110F0F"/>
<rect x="23.9717" y="25.002" width="34.8513" height="0.549862" transform="rotate(-10.8611 23.9717 25.002)" fill="#110F0F"/>
<rect x="16.0664" y="26.481" width="5.06363" height="0.549862" transform="rotate(-10.8611 16.0664 26.481)" fill="#110F0F"/>
<rect x="78.5049" y="46.1138" width="0.802201" height="17.3275" transform="rotate(15.3389 78.5049 46.1138)" fill="#110F0F"/>
</svg>
